0
SECTION
2
HEADER
9
$INSUNITS
70
4
9
$ACADVER
1
AC1014
9
$HANDSEED
5
FFFF
0
ENDSEC
0
SECTION
2
TABLES
0
TABLE
2
VPORT
5
8
100
AcDbSymbolTable
0
ENDTAB
0
TABLE
2
LTYPE
5
5
100
AcDbSymbolTable
0
LTYPE
5
14
100
AcDbSymbolTableRecord
100
AcDbLinetypeTableRecord
2
BYBLOCK
70
0
0
LTYPE
5
15
100
AcDbSymbolTableRecord
100
AcDbLinetypeTableRecord
2
BYLAYER
70
0
0
ENDTAB
0
TABLE
2
LAYER
5
2
100
AcDbSymbolTable
70
2
0
LAYER
5
50
100
AcDbSymbolTableRecord
100
AcDbLayerTableRecord
2
0
70
0
6
CONTINUOUS
0
ENDTAB
0
TABLE
2
STYLE
5
3
100
AcDbSymbolTable
70
1
0
STYLE
5
11
100
AcDbSymbolTableRecord
100
AcDbTextStyleTableRecord
2
STANDARD
70
0
0
ENDTAB
0
TABLE
2
VIEW
5
6
100
AcDbSymbolTable
70
0
0
ENDTAB
0
TABLE
2
UCS
5
7
100
AcDbSymbolTable
70
0
0
ENDTAB
0
TABLE
2
APPID
5
9
100
AcDbSymbolTable
70
2
0
APPID
5
12
100
AcDbSymbolTableRecord
100
AcDbRegAppTableRecord
2
ACAD
70
0
0
ENDTAB
0
TABLE
2
DIMSTYLE
5
A
100
AcDbSymbolTable
70
1
0
ENDTAB
0
TABLE
2
BLOCK_RECORD
5
1
100
AcDbSymbolTable
70
1
0
BLOCK_RECORD
5
1F
100
AcDbSymbolTableRecord
100
AcDbBlockTableRecord
2
*MODEL_SPACE
0
BLOCK_RECORD
5
1B
100
AcDbSymbolTableRecord
100
AcDbBlockTableRecord
2
*PAPER_SPACE
0
ENDTAB
0
ENDSEC
0
SECTION
2
BLOCKS
0
BLOCK
5
20
100
AcDbEntity
100
AcDbBlockBegin
2
*MODEL_SPACE
0
ENDBLK
5
21
100
AcDbEntity
100
AcDbBlockEnd
0
BLOCK
5
1C
100
AcDbEntity
100
AcDbBlockBegin
2
*PAPER_SPACE
0
ENDBLK
5
1D
100
AcDbEntity
100
AcDbBlockEnd
0
ENDSEC
0
SECTION
2
ENTITIES
0
LINE
5
100
100
AcDbEntity
8
0
100
AcDbLine
10
194.99999999587124
20
-31.000000372529037
30
-2.7755575615628914e-16
11
191.99999999587124
21
-31.000000372529037
31
-2.7755575615628914e-16
0
LINE
5
101
100
AcDbEntity
8
0
100
AcDbLine
10
191.99999999587124
20
-31.000000372529037
30
-2.7755575615628914e-16
11
191.99999999587124
21
-28.000000372529033
31
-2.7755575615628914e-16
0
LINE
5
102
100
AcDbEntity
8
0
100
AcDbLine
10
191.99999999587124
20
-28.000000372529033
30
-2.7755575615628914e-16
11
194.99999999587124
21
-28.000000372529033
31
-2.7755575615628914e-16
0
LINE
5
103
100
AcDbEntity
8
0
100
AcDbLine
10
191.99999999587124
20
31.000000372529037
30
1.3877787807814457e-15
11
194.99999999587124
21
31.000000372529037
31
1.3877787807814457e-15
0
LINE
5
104
100
AcDbEntity
8
0
100
AcDbLine
10
194.99999999587124
20
28.000000372529033
30
1.3877787807814457e-15
11
191.99999999587124
21
28.000000372529033
31
1.3877787807814457e-15
0
LINE
5
105
100
AcDbEntity
8
0
100
AcDbLine
10
191.99999999587124
20
28.000000372529033
30
1.3877787807814457e-15
11
191.99999999587124
21
31.000000372529037
31
1.3877787807814457e-15
0
LWPOLYLINE
5
106
100
AcDbEntity
8
0
100
AcDbPolyline
90
14
70
1
43
0.0
10
177.99999999587124
20
-43.000000372529037
10
221.74264068299044
20
-43.000000372529037
10
232.49999999587124
20
-32.242641059648264
10
232.49999999587124
20
-15
10
229.49999617704526
20
-15
10
229.49999617704526
20
-10
10
232.49999999587124
20
-9.9999999999999982
10
232.49999999587124
20
10.000000014901156
10
229.50001525053159
20
10.000000014901161
10
229.50001525053159
20
15.000000014901158
10
232.49999999587124
20
15.000000014901161
10
232.49999999587124
20
32.24264105964825
10
221.74264068299044
20
43.000000372529037
10
177.99999999587124
20
43.000000372529037
0
LINE
5
107
100
AcDbEntity
8
0
100
AcDbLine
10
177.99999999587124
20
43.000000372529037
30
2.7755575615628914e-15
11
221.74264068299044
21
43.000000372529037
31
1.1102230246251565e-15
0
LINE
5
108
100
AcDbEntity
8
0
100
AcDbLine
10
221.74264068299044
20
43.000000372529037
30
1.1102230246251565e-15
11
232.49999999587124
21
32.24264105964825
31
2.7755575615628914e-16
0
LINE
5
109
100
AcDbEntity
8
0
100
AcDbLine
10
232.49999999587124
20
32.24264105964825
30
2.7755575615628914e-16
11
232.49999999587124
21
15.000000014901161
31
0
0
LINE
5
110
100
AcDbEntity
8
0
100
AcDbLine
10
232.49999999587124
20
15.000000014901161
30
0
11
229.50001525053159
21
15.000000014901158
31
1.1102230246251565e-15
0
LINE
5
111
100
AcDbEntity
8
0
100
AcDbLine
10
229.50001525053159
20
15.000000014901158
30
1.1102230246251565e-15
11
229.50001525053159
21
10.000000014901161
31
2.7755575615628914e-16
0
LINE
5
112
100
AcDbEntity
8
0
100
AcDbLine
10
229.50001525053159
20
10.000000014901161
30
2.7755575615628914e-16
11
232.49999999587124
21
10.000000014901156
31
1.1102230246251565e-15
0
LINE
5
113
100
AcDbEntity
8
0
100
AcDbLine
10
232.49999999587124
20
10.000000014901156
30
1.1102230246251565e-15
11
232.49999999587124
21
-9.9999999999999982
31
0
0
LINE
5
114
100
AcDbEntity
8
0
100
AcDbLine
10
232.49999999587124
20
-9.9999999999999982
30
0
11
229.49999617704526
21
-10
31
1.1102230246251565e-15
0
LINE
5
115
100
AcDbEntity
8
0
100
AcDbLine
10
229.49999617704526
20
-10
30
1.1102230246251565e-15
11
229.49999617704526
21
-15
31
2.7755575615628914e-16
0
LINE
5
116
100
AcDbEntity
8
0
100
AcDbLine
10
229.49999617704526
20
-15
30
2.7755575615628914e-16
11
232.49999999587124
21
-15
31
1.3877787807814457e-15
0
LINE
5
117
100
AcDbEntity
8
0
100
AcDbLine
10
232.49999999587124
20
-15
30
1.3877787807814457e-15
11
232.49999999587124
21
-32.242641059648264
31
-1.3877787807814457e-15
0
LINE
5
118
100
AcDbEntity
8
0
100
AcDbLine
10
232.49999999587124
20
-32.242641059648264
30
-1.3877787807814457e-15
11
221.74264068299044
21
-43.000000372529037
31
0
0
LINE
5
119
100
AcDbEntity
8
0
100
AcDbLine
10
221.74264068299044
20
-43.000000372529037
30
0
11
177.99999999587124
21
-43.000000372529037
31
5.5511151231257827e-16
0
LINE
5
120
100
AcDbEntity
8
0
100
AcDbLine
10
177.99999999587124
20
-43.000000372529037
30
5.5511151231257827e-16
11
177.99999999587124
21
43.000000372529037
31
2.7755575615628914e-15
0
LWPOLYLINE
5
121
100
AcDbEntity
8
0
100
AcDbPolyline
90
4
70
1
43
0.0
10
191.99999999587124
20
31.000000372529037
10
214.0000031888485
20
31.000000372529037
10
214.0000031888485
20
28.000000417232513
10
191.99999999587124
20
28.000000417232513
0
LWPOLYLINE
5
122
100
AcDbEntity
8
0
100
AcDbPolyline
90
4
70
1
43
0.0
10
191.99999999587124
20
-28.000000372529033
10
214.0000031888485
20
-28.000000372529033
10
214.0000031888485
20
-31.000000461935997
10
191.99999999587124
20
-31.000000461935997
0
ENDSEC
0
SECTION
2
OBJECTS
0
DICTIONARY
5
C
100
AcDbDictionary
3
ACAD_GROUP
350
D
3
ACAD_MLINESTYLE
350
17
0
DICTIONARY
5
D
100
AcDbDictionary
0
DICTIONARY
5
1A
330
C
100
AcDbDictionary
0
DICTIONARY
5
17
100
AcDbDictionary
0
ENDSEC
0
EOF
